<svg xmlns="http://www.w3.org/2000/svg" xmlns:xlink="http://www.w3.org/1999/xlink" version="1.1" x="0px" y="0px" viewBox="0 0 32 40" enable-background="new 0 0 32 32" xml:space="preserve"><path d="M15.918,7.22L5.88,16.531c-0.023,0.021-0.028,9.087-0.029,12.33C5.851,29.489,6.359,30,6.989,30h5.485  c0.314,0,0.569-0.255,0.569-0.568v-7.902c0-0.314,0.255-0.568,0.569-0.568h4.527c0.314,0,0.568,0.254,0.568,0.568v7.902  c0,0.313,0.255,0.568,0.568,0.568h5.486c0.629,0,1.137-0.511,1.137-1.139v-12.32l-9.922-9.263L15.918,7.22z"/><path d="M24.684,10.77c0.77-0.313,1.383-0.976,1.59-1.846c0.336-1.427-0.553-2.856-1.975-3.192  c-1.355-0.318-2.697,0.467-3.122,1.766l-4.419-4.125c-0.474-0.441-1.205-0.441-1.68-0.002L2.183,15.331  c-0.23,0.215-0.244,0.574-0.03,0.805l0.903,0.974c0.213,0.229,0.572,0.244,0.803,0.031L15.914,5.956l11.977,11.18  c0.229,0.214,0.588,0.201,0.803-0.028l0.906-0.97c0.215-0.229,0.201-0.589-0.026-0.804L24.684,10.77z"/><path d="M24.789,2.245l-0.553,2.369c-0.043,0.172,0.063,0.345,0.234,0.383c0.17,0.04,0.344-0.065,0.383-0.236l0.557-2.368  c0.04-0.172-0.063-0.343-0.236-0.384C25.005,1.968,24.828,2.075,24.789,2.245z"/><path d="M27.678,3.609l-1.666,1.772c-0.121,0.129-0.117,0.33,0.012,0.451c0.045,0.039,0.094,0.064,0.146,0.076  c0.105,0.027,0.225-0.006,0.305-0.091l1.668-1.773c0.121-0.125,0.113-0.329-0.016-0.448C27.999,3.475,27.797,3.482,27.678,3.609z"/><path d="M26.953,7.332c0.033,0.112,0.125,0.194,0.23,0.219c0.053,0.012,0.109,0.012,0.166-0.006l2.327-0.7  c0.169-0.051,0.265-0.229,0.214-0.396c-0.053-0.17-0.227-0.264-0.396-0.213l-2.328,0.701C27,6.988,26.9,7.164,26.953,7.332z"/><path d="M21.822,2.111c-0.168,0.051-0.264,0.229-0.211,0.397l0.697,2.329c0.034,0.113,0.125,0.192,0.233,0.218  c0.052,0.013,0.106,0.012,0.164-0.005C22.873,5,22.968,4.821,22.92,4.654l-0.699-2.329C22.169,2.156,21.992,2.062,21.822,2.111z"/><path d="M18.971,3.877c-0.119,0.128-0.113,0.329,0.018,0.45l1.769,1.666c0.041,0.04,0.095,0.066,0.146,0.078  c0.106,0.026,0.227-0.005,0.304-0.092c0.125-0.127,0.114-0.33-0.013-0.451l-1.771-1.665C19.292,3.741,19.092,3.749,18.971,3.877z"/><path d="M26.174,10.648c-0.124,0.128-0.115,0.331,0.012,0.451l1.771,1.667c0.042,0.038,0.095,0.065,0.145,0.077  c0.106,0.025,0.227-0.006,0.306-0.091c0.118-0.128,0.112-0.329-0.013-0.45l-1.771-1.668C26.491,10.514,26.294,10.521,26.174,10.648z  "/><path d="M29.756,9.415l-2.367-0.557c-0.171-0.041-0.341,0.065-0.382,0.237c-0.041,0.171,0.063,0.343,0.236,0.384l2.366,0.558  c0.17,0.038,0.342-0.068,0.382-0.238C30.032,9.627,29.927,9.455,29.756,9.415z"/><text x="0" y="47" fill="#000000" font-size="5px" font-weight="bold" font-family="'Helvetica Neue', Helvetica, Arial-Unicode, Arial, Sans-serif">Created by Milinda Courey</text><text x="0" y="52" fill="#000000" font-size="5px" font-weight="bold" font-family="'Helvetica Neue', Helvetica, Arial-Unicode, Arial, Sans-serif">from the Noun Project</text></svg>